<svg xmlns="http://www.w3.org/2000/svg" version="1.1" width="1562px" height="1562px" style="shape-rendering:geometricPrecision; text-rendering:geometricPrecision; image-rendering:optimizeQuality; fill-rule:evenodd; clip-rule:evenodd" xmlns:xlink="http://www.w3.org/1999/xlink">
<g><path style="opacity:0.99" fill="#10191f" d="M 750.5,-0.5 C 770.5,-0.5 790.5,-0.5 810.5,-0.5C 1025.67,11.3346 1207.17,95.0013 1355,250.5C 1361.96,259.13 1369.29,267.463 1377,275.5C 1377.67,276.5 1377.67,277.5 1377,278.5C 1326,380.5 1275,482.5 1224,584.5C 1160.57,449.074 1057.41,359.241 914.5,315C 785.855,280.123 662.855,294.123 545.5,357C 421.567,428.987 342.4,534.82 308,674.5C 277.959,822.635 307.959,956.968 398,1077.5C 415.496,1099.77 434.83,1120.44 456,1139.5C 564.395,922.376 673.062,705.376 782,488.5C 890.582,704.496 998.748,920.663 1106.5,1137C 1107.17,1137.67 1107.83,1137.67 1108.5,1137C 1157.17,1091.81 1195.17,1038.98 1222.5,978.5C 1258.83,977.5 1295.16,977.167 1331.5,977.5C 1283.84,1108.51 1200.51,1210.18 1081.5,1282.5C 1052.17,1224.5 1022.83,1166.5 993.5,1108.5C 900.04,1166.69 799.374,1184.19 691.5,1161C 676.771,1157.59 662.437,1153.09 648.5,1147.5C 663.039,1118.26 677.705,1089.09 692.5,1060C 783.171,1085.48 867.838,1072.48 946.5,1021C 947.574,1020.26 948.241,1019.26 948.5,1018C 893.136,906.771 837.636,795.605 782,684.5C 683.476,885.215 583.642,1085.22 482.5,1284.5C 329.183,1190.35 236.017,1054.35 203,876.5C 176.283,690.043 224.616,526.376 348,385.5C 473.316,253.298 627.483,190.132 810.5,196C 974.213,207.032 1110.88,272.865 1220.5,393.5C 1236.09,363.322 1251.42,332.989 1266.5,302.5C 1174.24,209.343 1063.91,147.176 935.5,116C 764.174,78.4277 601.507,101.428 447.5,185C 302.276,268.569 199.776,388.736 140,545.5C 84.6668,702.163 84.6668,858.83 140,1015.5C 213.109,1203.94 342.942,1337.11 529.5,1415C 668.815,1468.55 810.815,1476.88 955.5,1440C 1149.94,1384.52 1294.44,1267.69 1389,1089.5C 1421.89,1023.98 1444.06,954.982 1455.5,882.5C 1328.84,881.5 1202.17,881.167 1075.5,881.5C 1090.53,848.271 1106.53,815.438 1123.5,783C 1269.5,782.5 1415.5,782.333 1561.5,782.5C 1561.5,792.833 1561.5,803.167 1561.5,813.5C 1549.18,1027.61 1465.51,1208.11 1310.5,1355C 1169.1,1482.66 1002.77,1551.49 811.5,1561.5C 790.833,1561.5 770.167,1561.5 749.5,1561.5C 535.82,1549.39 355.32,1466.39 208,1312.5C 78.3021,1170.02 8.80208,1002.02 -0.5,808.5C -0.5,789.833 -0.5,771.167 -0.5,752.5C 10.9523,531.79 97.619,346.957 259.5,198C 399.598,74.9969 563.264,8.83023 750.5,-0.5 Z"/></g>
</svg>