<svg width="25" height="25" viewBox="0 0 25 25" fill="none" xmlns="http://www.w3.org/2000/svg">
<path fill-rule="evenodd" clip-rule="evenodd" d="M2.71552 1.62821C2.23152 1.74321 1.99852 2.35421 2.28352 2.75821C2.50652 3.07321 2.56852 3.08721 3.84052 3.11021C5.08552 3.13221 5.10452 3.13621 5.39552 3.41821C5.58652 3.60421 5.69952 3.82421 5.72552 4.06322C5.73652 4.16621 5.55452 6.52722 5.32052 9.31021C4.86152 14.7552 4.85552 14.8892 5.02052 15.4672C5.25164 16.2808 5.75593 16.9899 6.44852 17.4752C6.69852 17.6482 7.22952 17.8862 7.56052 17.9752C7.82852 18.0472 8.09552 18.0502 13.7805 18.0502H19.7205L20.0325 17.9602C21.0275 17.6712 21.9415 16.8742 22.3585 15.9302C22.5925 15.4012 22.6035 15.3082 22.9025 11.1902C23.2025 7.06821 23.2175 6.63222 23.0805 6.11022C22.9025 5.46422 22.5504 4.87958 22.0625 4.42022C21.6075 3.99922 21.1635 3.75921 20.5005 3.57521C20.2035 3.49321 20.1255 3.49221 13.6685 3.47121L7.13652 3.45021L7.04352 3.22121C6.91218 2.89544 6.71035 2.60277 6.45252 2.36421C5.99052 1.91321 5.54852 1.70021 4.92452 1.62821C4.54552 1.58421 2.89852 1.58421 2.71552 1.62821ZM20.3005 5.06321C20.6485 5.18821 20.8835 5.34321 21.1565 5.62921C21.5935 6.08821 21.7865 6.76222 21.6745 7.43922L21.6505 7.58921L15.6655 7.59922L9.68052 7.61022L9.52752 7.70521C9.41395 7.76993 9.32032 7.86457 9.25684 7.97884C9.19336 8.0931 9.16246 8.2226 9.16752 8.35322C9.16752 8.55322 9.18652 8.62021 9.28352 8.75821C9.3584 8.85852 9.45258 8.94284 9.56052 9.00622C9.72052 9.09022 9.72452 9.09022 15.6305 9.10122L21.5405 9.11121V9.24121C21.5405 9.31221 21.4505 10.6042 21.3415 12.1122C21.1215 15.1462 21.1165 15.1772 20.8175 15.6252C20.6225 15.9182 20.2755 16.2302 19.9935 16.3682C19.5195 16.6002 19.8125 16.5902 13.7775 16.5902C10.2555 16.5902 8.15252 16.5752 8.01552 16.5502C7.24552 16.4072 6.54952 15.6842 6.41652 14.8862C6.37452 14.6382 6.40952 14.1332 6.75552 9.97021C6.96752 7.41821 7.15152 5.24422 7.16452 5.13921L7.18852 4.94822L13.6145 4.95922L20.0405 4.97021L20.3005 5.06321ZM8.62452 19.1712C8.03152 19.3372 7.47252 19.8472 7.27752 20.3982C6.70852 22.0112 8.23952 23.5422 9.85252 22.9732C10.4395 22.7662 10.9725 22.1462 11.1025 21.5192C11.16 21.153 11.1351 20.7786 11.0295 20.4232C10.9259 20.1491 10.7651 19.9001 10.5579 19.6929C10.3506 19.4856 10.1017 19.3248 9.82752 19.2212C9.52552 19.1132 8.92152 19.0882 8.62452 19.1712ZM16.6245 19.1712C16.3375 19.2512 16.0495 19.4122 15.8175 19.6212C15.6165 19.8018 15.4545 20.0215 15.3413 20.2669C15.2281 20.5123 15.1661 20.7782 15.1592 21.0483C15.1523 21.3184 15.2005 21.5871 15.301 21.838C15.4015 22.0888 15.552 22.3165 15.7435 22.5072C15.9342 22.6987 16.1619 22.8493 16.4128 22.9497C16.6636 23.0502 16.9323 23.0984 17.2025 23.0915C17.4726 23.0846 17.7385 23.0226 17.9838 22.9095C18.2292 22.7963 18.4489 22.6342 18.6295 22.4332C18.8427 22.1967 18.9962 21.9126 19.0772 21.6047C19.1583 21.2968 19.1646 20.974 19.0955 20.6632C19.0188 20.3375 18.8632 20.0357 18.6425 19.7842C18.4217 19.5328 18.1425 19.3395 17.8295 19.2212C17.5255 19.1132 16.9225 19.0872 16.6245 19.1712ZM9.37852 20.6632C9.52552 20.7422 9.66052 20.9522 9.66052 21.1012C9.66052 21.3472 9.41852 21.5902 9.17352 21.5902C8.85952 21.5902 8.66052 21.3922 8.66052 21.0812C8.66052 20.9022 8.73952 20.7742 8.91552 20.6672C9.07252 20.5712 9.20352 20.5702 9.37852 20.6632ZM17.3785 20.6632C17.5255 20.7422 17.6605 20.9522 17.6605 21.1012C17.6605 21.3472 17.4185 21.5902 17.1735 21.5902C16.8595 21.5902 16.6605 21.3922 16.6605 21.0812C16.6605 20.9022 16.7395 20.7742 16.9155 20.6672C17.0725 20.5712 17.2035 20.5702 17.3785 20.6632Z" fill="white"/>
</svg>
