 <svg width="24" height="24" viewBox="0 0 24 24" fill="none" xmlns="http://www.w3.org/2000/svg">
    <g clip-path="url(#clip0_0_81)">
      <path
        d="M0.749878 12C0.749878 14.2125 1.38738 16.275 2.47488 18H21.4874C22.5749 16.275 23.2124 14.2125 23.2124 12C23.2124 9.7875 22.5749 7.725 21.4874 6H2.47488C1.38738 7.725 0.749878 9.7875 0.749878 12Z"
        fill="#FFCE31"
      />
      <path
        d="M21.5246 6C19.5371 2.85 16.0121 0.75 11.9996 0.75C7.98714 0.75 4.46214 2.85 2.47464 6H21.5246ZM2.47464 18C4.46214 21.15 7.98714 23.25 11.9996 23.25C16.0121 23.25 19.5371 21.15 21.5246 18H2.47464Z"
        fill="#ED4C5C"
      />
      <path
        d="M3.45038 10.7625H4.65038V11.4375H3.45038V10.7625ZM3.45038 15.7125H4.68788V16.35H3.45038V15.7125Z"
        fill="#C8B100"
      />
      <path
        d="M3.33792 14.6626C3.22542 14.7376 3.15042 14.8126 3.15042 14.8501C3.15042 14.8876 3.18792 14.9251 3.26292 14.9626C3.33792 15.0001 3.41292 15.0751 3.37542 15.1501C3.45042 15.0751 3.48792 15.0001 3.48792 14.9251C3.48792 14.8126 3.41292 14.7001 3.33792 14.6626Z"
        fill="#ED4C5C"
      />
      <path d="M3.63742 11.4375H4.49992V15.7125H3.63742V11.4375Z" fill="white" />
      <path
        d="M5.40042 13.0125C5.21292 12.9375 4.87542 12.8625 4.50042 12.8625C4.38792 12.8625 4.23792 12.8625 4.08792 12.9C3.56292 12.975 3.15042 13.2 3.18792 13.35L3.00042 12.9375C2.96292 12.75 3.41292 12.525 3.97542 12.4125C4.16292 12.375 4.35042 12.375 4.50042 12.375C4.87542 12.375 5.21292 12.4125 5.40042 12.4875V13.0125Z"
        fill="#ED4C5C"
      />
      <path
        d="M3.63741 13.575C3.41241 13.575 3.22491 13.5 3.22491 13.3875C3.22491 13.3125 3.29991 13.2 3.44991 13.125H3.67491L3.63741 13.575ZM4.49991 13.2375C4.64991 13.275 4.76241 13.3125 4.83741 13.35C4.87491 13.3875 4.72491 13.5375 4.49991 13.65V13.2375Z"
        fill="#ED4C5C"
      />
      <path
        d="M3.07508 14.4001C3.03758 14.3251 3.30008 14.1751 3.63758 14.0626C3.78758 14.0251 3.90008 13.9501 4.08758 13.8751C4.53758 13.6876 4.91258 13.4251 4.83758 13.3501L4.91258 13.8001C4.95008 13.8751 4.65008 14.1001 4.20008 14.3251C4.05008 14.4001 3.78758 14.5126 3.63758 14.5501C3.37508 14.6251 3.15008 14.7751 3.15008 14.8126L3.07508 14.4001Z"
        fill="#ED4C5C"
      />
      <path
        d="M11.5126 10.7625H12.7126V11.4375H11.5126V10.7625ZM11.4751 15.7125H12.7126V16.35H11.4751V15.7125Z"
        fill="#C8B100"
      />
      <path
        d="M12.8249 14.6626C12.9374 14.7376 13.0124 14.8126 13.0124 14.8501C13.0124 14.8876 12.9749 14.9251 12.8999 14.9626C12.8249 15.0376 12.7499 15.1501 12.7874 15.1876C12.7124 15.1126 12.6749 15.0376 12.6749 14.9626C12.6749 14.8126 12.7499 14.7001 12.8249 14.6626Z"
        fill="#ED4C5C"
      />
      <path d="M11.6621 11.4375H12.5246V15.7125H11.6621V11.4375Z" fill="white" />
      <path
        d="M10.7628 13.0125C10.9503 12.9375 11.2878 12.8625 11.6628 12.8625C11.7753 12.8625 11.9253 12.8625 12.0753 12.9C12.6003 12.975 13.0128 13.2 12.9753 13.35L13.1628 12.9C13.2003 12.7125 12.7503 12.4875 12.1878 12.375H11.6628C11.2878 12.375 10.9503 12.4125 10.7628 12.4875V13.0125Z"
        fill="#ED4C5C"
      />
      <path
        d="M12.5254 13.575C12.7504 13.575 12.9379 13.5 12.9379 13.3875C12.9379 13.3125 12.8629 13.2 12.7129 13.125H12.4879L12.5254 13.575ZM11.6629 13.2375C11.5129 13.275 11.4004 13.3125 11.3254 13.35C11.2879 13.3875 11.4379 13.5375 11.6629 13.65V13.2375Z"
        fill="#ED4C5C"
      />
      <path
        d="M13.0877 14.4C13.1252 14.325 12.8627 14.175 12.5252 14.0625C12.3752 14.025 12.2627 13.95 12.0752 13.875C11.6252 13.6875 11.2502 13.425 11.3252 13.35L11.2502 13.8C11.2127 13.875 11.5127 14.1 11.9627 14.325C12.1127 14.4 12.3752 14.5125 12.5252 14.55C12.7877 14.625 13.0127 14.8125 12.9752 14.85L13.0877 14.4ZM8.06273 8.36255C8.77523 8.36255 10.2377 8.51255 10.7627 9.03755C10.2002 10.3875 9.30023 9.82505 8.06273 9.82505C6.86273 9.82505 5.92523 10.3875 5.36273 9.03755C5.88773 8.51255 7.31273 8.36255 8.06273 8.36255Z"
        fill="#ED4C5C"
      />
      <path
        d="M9.89977 9.8625C9.44977 9.6 8.77477 9.5625 8.06227 9.5625C7.34977 9.5625 6.67477 9.6375 6.22477 9.8625L6.37477 10.5C6.78727 10.6125 7.38727 10.6875 8.06227 10.6875C8.73727 10.6875 9.29977 10.6125 9.74977 10.5L9.89977 9.8625ZM10.5373 8.25C10.3873 8.1375 10.0873 8.025 9.82478 8.025C9.71228 8.025 9.59977 8.025 9.48727 8.0625C9.48727 8.0625 9.26227 7.7625 8.73727 7.7625C8.54977 7.7625 8.39977 7.8 8.24977 7.875V7.8375C8.21227 7.7625 8.13727 7.6875 8.06227 7.6875C7.98727 7.6875 7.87477 7.8 7.87477 7.875V7.9125C7.72477 7.8375 7.57477 7.8 7.38727 7.8C6.86227 7.8 6.63727 8.1375 6.63727 8.1C6.52477 8.0625 6.41227 8.0625 6.29977 8.0625C4.57477 8.0625 5.43727 9.225 5.43727 9.225L5.62477 9C5.21227 8.475 5.58727 8.175 6.33727 8.175C6.44977 8.175 6.52477 8.175 6.59977 8.2125C6.33727 8.5875 6.82477 8.925 6.82477 8.925L6.93727 8.7375C6.67477 8.55 6.63727 7.9125 7.38727 7.9125C7.57477 7.9125 7.72477 7.95 7.87477 8.0625C7.87477 8.1 7.83727 8.625 7.79977 8.7L8.09977 8.9625L8.39977 8.7C8.36227 8.5875 8.32477 8.1 8.32477 8.0625C8.43727 7.9875 8.62477 7.9125 8.81227 7.9125C9.59977 7.9125 9.59978 8.55 9.26228 8.7375L9.37477 8.925C9.37477 8.925 9.78727 8.5875 9.59977 8.2125C9.67478 8.2125 9.78727 8.175 9.86227 8.175C10.7623 8.175 10.7998 8.85 10.5748 9L10.7248 9.225C10.6498 9.225 11.0623 8.7 10.5373 8.25Z"
        fill="#C8B100"
      />
      <path
        d="M7.83768 7.5375C7.83768 7.425 7.95018 7.3125 8.06268 7.3125C8.21268 7.3125 8.28768 7.425 8.28768 7.5375C8.28768 7.65 8.17518 7.7625 8.06268 7.7625C7.95018 7.7625 7.83768 7.65 7.83768 7.5375Z"
        fill="#005BBF"
      />
      <path
        d="M7.98768 6.8999V7.0124H7.87518V7.1249H7.98768V7.4999H7.83768V7.6124H8.28768L8.32518 7.5374L8.28768 7.4999H8.13768V7.1249H8.25018V7.0124H8.13768V6.8999H7.98768Z"
        fill="#C8B100"
      />
      <path
        d="M8.06243 10.6125C7.46243 10.6125 6.93743 10.5375 6.52493 10.425C6.93743 10.3125 7.46243 10.2375 8.06243 10.2375C8.66243 10.2375 9.18743 10.3125 9.59993 10.425C9.22493 10.5375 8.66243 10.6125 8.06243 10.6125Z"
        fill="#ED4C5C"
      />
      <path
        d="M8.10009 17.1001C7.38759 17.1001 6.71259 16.9126 6.11259 16.6501C5.66259 16.4251 5.40009 16.0126 5.40009 15.5251V13.7251H10.8001V15.5251C10.8001 16.0126 10.5001 16.4626 10.0876 16.6501C9.48759 16.9501 8.81259 17.1001 8.10009 17.1001ZM8.06259 10.7251H10.7626V13.7251H8.06259V10.7251Z"
        fill="white"
      />
      <path
        d="M8.10009 15.5251C8.10009 16.2376 7.50009 16.8001 6.75009 16.8001C6.00009 16.8001 5.40009 16.2376 5.40009 15.5251V13.7251H8.10009V15.5251Z"
        fill="#ED4C5C"
      />
      <path
        d="M5.96215 16.5749C6.03715 16.6124 6.14965 16.6874 6.29965 16.7249V13.6499H5.99965L5.96215 16.5749ZM5.36215 15.4874C5.36215 15.8624 5.51215 16.1624 5.66215 16.3124V13.6499H5.36215V15.4874Z"
        fill="#C8B100"
      />
      <path d="M6.56284 16.7999H6.86284V13.6499H6.56284V16.7999Z" fill="#C7B500" />
      <path
        d="M7.16275 16.7249C7.27525 16.6874 7.42525 16.6124 7.50025 16.5749V13.6499H7.20025L7.16275 16.7249Z"
        fill="#C8B100"
      />
      <path d="M5.36215 10.7251H8.06215V13.7251H5.36215V10.7251Z" fill="#ED4C5C" />
      <path
        d="M7.79974 16.3125C7.94974 16.2 8.06224 15.9375 8.09974 15.6375V13.6875H7.79974V16.3125Z"
        fill="#C8B100"
      />
      <path
        d="M10.8006 13.7251V15.5251C10.8006 16.2376 10.2006 16.8001 9.45057 16.8001C8.70057 16.8001 8.10057 16.2376 8.10057 15.5251V13.7251H10.8006ZM9.82557 11.2501C9.93807 11.4751 9.93807 12.0376 9.60057 11.9251C9.67557 11.9626 9.71307 12.2251 9.82557 12.3751C10.0131 12.6001 10.2381 12.4126 10.2006 12.1501C10.1256 11.7376 10.1631 11.4751 10.2381 11.0626C10.2381 11.1001 10.4256 11.1001 10.5006 11.0251C10.4631 11.1376 10.4256 11.2876 10.5006 11.2876C10.4256 11.4001 10.2381 11.5876 10.2006 11.7001C10.1631 11.9626 10.5756 12.4501 10.1256 12.5626C9.82557 12.6376 10.0131 12.8626 10.1256 12.9751C10.1256 12.9751 9.97557 13.4626 10.0506 13.4251C9.75057 13.5376 9.82557 13.2751 9.82557 13.2751C9.97557 12.8251 9.56307 12.7876 9.60057 12.7126C9.22557 12.6751 9.63807 13.0501 9.30057 13.0501C9.22557 13.0501 9.07557 13.1251 9.07557 13.1251C8.66307 13.0876 8.88807 12.7126 9.03807 12.7501C9.15057 12.7876 9.26307 12.9751 9.26307 12.7126C9.26307 12.7126 9.07557 12.4126 9.56307 12.4126C9.37557 12.4126 9.26307 12.2626 9.18807 12.0751C9.11307 12.1126 9.00057 12.3001 8.58807 12.3376C8.58807 12.3376 8.47557 11.9251 8.58807 12.0001C8.73807 12.0751 8.81307 12.0751 8.96307 11.9251C8.88807 11.8126 8.43807 11.6626 8.51307 11.4001C8.51307 11.3251 8.73807 11.2126 8.73807 11.2126C8.70057 11.4001 8.81307 11.5876 9.03807 11.5876C9.33807 11.6251 9.22557 11.5126 9.26307 11.4376C9.30057 11.3626 9.52557 11.4751 9.45057 11.2876C9.45057 11.2501 9.18807 11.2126 9.26307 11.1001C9.41307 10.9126 9.63807 11.0626 9.82557 11.2501ZM8.10057 16.7251L8.02557 16.5376L8.10057 16.3126L8.17557 16.5376L8.10057 16.7251Z"
        fill="#ED4C5C"
      />
      <path
        d="M6.18795 11.3625V11.55H6.26295V11.7H6.07545V12.075H6.18795V12.9H5.96295V13.3125H7.50045V12.9H7.31295V12.075H7.38795V11.7H7.20045V11.55H7.31295V11.3625H6.93795V11.55H7.01295V11.7H6.82545V11.25H6.93795V11.0625H6.52545V11.25H6.63795V11.7H6.45045V11.55H6.52545V11.3625H6.18795ZM10.4255 15.975V14.1H8.47545V15.975L9.37545 16.3875H9.48795L10.4255 15.975ZM9.37545 14.25V14.8875L8.73795 14.25H9.37545ZM8.58795 14.2875L9.33795 15.0375L8.58795 15.7875V14.2875ZM8.66295 15.9375L9.37545 15.225V16.275L8.66295 15.9375ZM9.48795 16.2375V15.1875L10.2005 15.9L9.48795 16.2375ZM10.2755 15.7875L9.52545 15.0375L10.2755 14.2875V15.7875ZM9.48795 14.25H10.1255L9.48795 14.8875V14.25Z"
        fill="#C8B100"
      />
      <path
        d="M7.19983 13.6874C7.19983 13.1249 7.57483 12.7124 8.06233 12.7124C8.54983 12.7124 8.92483 13.1624 8.92483 13.6874C8.92483 14.2124 8.54983 14.6624 8.06233 14.6624C7.57483 14.6624 7.19983 14.2499 7.19983 13.6874Z"
        fill="#ED4C5C"
      />
      <path
        d="M7.46271 13.6876C7.46271 13.2751 7.72521 12.9751 8.06271 12.9751C8.40021 12.9751 8.66271 13.3126 8.66271 13.6876C8.66271 14.1001 8.40021 14.4001 8.06271 14.4001C7.76271 14.4376 7.46271 14.1001 7.46271 13.6876Z"
        fill="#005BBF"
      />
      <path
        d="M7.79975 13.2L7.64975 13.6125L7.76225 13.65L7.68725 13.8H7.91225L7.83725 13.65L7.94975 13.6125L7.79975 13.2ZM8.36225 13.2L8.21225 13.6125L8.32475 13.65L8.24975 13.8H8.47475L8.43725 13.65L8.54975 13.6125L8.36225 13.2ZM8.09975 13.6875L7.91225 14.1L8.02475 14.1375L7.98725 14.2875H8.17475L8.13725 14.1375L8.24975 14.1L8.09975 13.6875Z"
        fill="#C8B100"
      />
    </g>
    <defs>
      <clipPath id="clip0_0_81">
        <rect width="24" height="24" fill="white" />
      </clipPath>
    </defs>
  </svg>