<svg width="136" height="48" viewBox="0 0 136 48" fill="none" xmlns="http://www.w3.org/2000/svg">
<path d="M31.4849 23.9968L47.9996 17.5577V30.4414L31.4849 23.9968Z" fill="#76BC21"/>
<path d="M19.2644 19.1204V28.8684L48 41.0133V46.7969C48 47.1161 47.8732 47.4222 47.6475 47.6479C47.4218 47.8736 47.1156 48.0004 46.7964 48.0004H9.59981V38.3988H0V1.20308C0 0.883871 0.126804 0.57774 0.352516 0.352028C0.578228 0.126315 0.884359 -0.000488281 1.20356 -0.000488281L46.7992 -0.000488281C47.1184 -0.000488281 47.4245 0.126315 47.6503 0.352028C47.876 0.57774 48.0028 0.883871 48.0028 1.20308V6.98296L19.2644 19.1204Z" fill="#76BC21"/>
<path d="M66.6801 44.0001C66.2198 43.4857 65.7667 42.9992 65.321 42.5406C64.8752 42.082 64.4358 41.595 64.0029 41.0798C64.7797 40.4664 65.4042 39.6817 65.8276 38.7871C66.2605 37.881 66.4748 36.7922 66.4705 35.5209V18.4418H70.3655V35.6842C70.3655 37.5505 70.0342 39.1733 69.3715 40.5526C68.7432 41.8884 67.8236 43.0664 66.6801 44.0001ZM66.1529 11.7488C66.1444 11.421 66.2069 11.0953 66.3364 10.794C66.4658 10.4928 66.659 10.2232 66.9026 10.0038C67.3536 9.56455 67.9575 9.31746 68.5871 9.31458C69.2193 9.33335 69.8192 9.59835 70.2588 10.0531C70.6983 10.5078 70.9429 11.1163 70.9403 11.7488C70.9403 12.4791 70.6968 13.0672 70.2099 13.513C69.7758 13.9375 69.1943 14.1776 68.5871 14.1829C67.96 14.1831 67.3563 13.9445 66.8987 13.5156C66.3981 13.0681 66.1482 12.4791 66.1491 11.7488H66.1529Z" fill="white"/>
<path d="M74.0587 27.2463C74.0543 26.0251 74.303 24.8162 74.789 23.6959C75.7263 21.496 77.4568 19.7292 79.6368 18.7466C80.7259 18.2473 81.9106 17.9911 83.1087 17.9956C83.8486 17.986 84.5857 18.0887 85.2947 18.3004C85.8799 18.4762 86.4447 18.7142 86.9792 19.0102C87.3886 19.2329 87.7641 19.5131 88.0941 19.8421C88.2987 20.0407 88.476 20.2655 88.6213 20.5108L88.7846 18.4418H92.5574V35.6843H88.6226V34.5475C88.622 34.4187 88.6288 34.2899 88.6432 34.1618C88.6544 34.0765 88.6612 33.9906 88.6638 33.9046C88.4862 34.1117 88.2964 34.3079 88.0954 34.4922C87.7657 34.7903 87.3977 35.0428 87.0011 35.2432C86.4773 35.5108 85.9264 35.7216 85.3577 35.872C84.6355 36.0579 83.8917 36.1466 83.146 36.1356C81.8915 36.1492 80.6481 35.9004 79.4954 35.4052C78.4206 34.9394 77.4434 34.275 76.615 33.4468C75.8006 32.6322 75.1555 31.6645 74.7167 30.5994C74.278 29.5344 74.0543 28.393 74.0587 27.2411V27.2463ZM77.9948 27.002C77.9881 27.7235 78.119 28.4396 78.3805 29.1121C78.6257 29.7428 78.9987 30.3159 79.4761 30.7953C79.9582 31.2746 80.5302 31.6539 81.1593 31.9115C82.5423 32.4512 84.0776 32.4512 85.4606 31.9115C86.0936 31.6518 86.6665 31.2649 87.1438 30.7748C87.6181 30.2865 87.9901 29.7086 88.2381 29.0748C88.4965 28.4158 88.6274 27.7137 88.6239 27.0058C88.6287 26.3045 88.4977 25.6089 88.2381 24.9574C87.9921 24.3389 87.6188 23.779 87.1425 23.314C86.6545 22.8442 86.0815 22.4715 85.4542 22.2159C84.7717 21.9386 84.0408 21.8004 83.3042 21.8096C82.5691 21.8003 81.839 21.9312 81.1529 22.1953C80.5254 22.4402 79.9553 22.8123 79.4784 23.288C79.0015 23.7638 78.6282 24.333 78.3818 24.96C78.1225 25.6093 77.9915 26.3028 77.996 27.002H77.9948Z" fill="white"/>
<path d="M96.2904 27.0829C96.2741 25.8207 96.5016 24.5672 96.9603 23.3912C97.3816 22.3208 98.017 21.3477 98.8274 20.5314C99.6287 19.7313 100.58 19.0973 101.627 18.6655C102.74 18.2104 103.933 17.9826 105.136 17.9956C105.903 17.9831 106.668 18.0787 107.408 18.2798C107.988 18.4416 108.547 18.6735 109.071 18.9703C109.484 19.2036 109.86 19.4974 110.187 19.8421C110.471 20.1533 110.694 20.4169 110.856 20.6329V4H114.751V35.6842H110.854V34.5475C110.856 34.3979 110.87 34.2487 110.895 34.1013C110.918 33.9808 110.931 33.8587 110.935 33.7361C110.652 34.0157 110.354 34.2801 110.043 34.5282C109.653 34.8362 109.232 35.1013 108.785 35.319C108.262 35.5754 107.711 35.7725 107.143 35.9067C106.458 36.0643 105.757 36.1394 105.054 36.1304C103.781 36.1505 102.517 35.9089 101.341 35.4206C100.291 34.9796 99.3499 34.3148 98.5831 33.4725C97.8303 32.6345 97.2512 31.6555 96.8793 30.5921C96.4814 29.4653 96.2821 28.2779 96.2904 27.0829ZM100.185 27.0019C100.179 27.7234 100.31 28.4396 100.571 29.1121C100.815 29.7432 101.188 30.3165 101.667 30.7953C102.148 31.2751 102.72 31.6545 103.35 31.9114C104.033 32.1879 104.763 32.3256 105.5 32.3165C106.243 32.3242 106.98 32.1866 107.67 31.9114C108.311 31.6552 108.89 31.268 109.372 30.7747C109.846 30.2862 110.22 29.7084 110.47 29.0748C110.728 28.4158 110.859 27.7137 110.856 27.0058C110.86 26.3045 110.729 25.6089 110.47 24.9574C110.223 24.3378 109.849 23.7767 109.372 23.3102C108.88 22.8389 108.301 22.4673 107.668 22.2159C106.978 21.9396 106.24 21.8016 105.497 21.8095C104.763 21.8004 104.033 21.9314 103.347 22.1953C102.719 22.4396 102.148 22.8114 101.67 23.2872C101.192 23.763 100.818 24.3325 100.571 24.9599C100.312 25.6093 100.181 26.3027 100.185 27.0019Z" fill="white"/>
<path d="M134.343 33.6962C133.455 34.4833 132.422 35.0895 131.301 35.481C130.132 35.9098 128.896 36.1296 127.65 36.1304C126.418 36.1376 125.197 35.8962 124.06 35.4206C122.968 34.9686 121.976 34.3067 121.139 33.4725C120.31 32.6429 119.642 31.6661 119.171 30.5921C118.69 29.4849 118.441 28.2904 118.441 27.0829C118.441 25.8755 118.69 24.6809 119.171 23.5737C119.643 22.5001 120.31 21.5234 121.139 20.6934C121.966 19.8669 122.944 19.2061 124.019 18.7465C125.115 18.273 126.297 18.0313 127.491 18.0367C129.439 18.0367 131.149 18.6248 132.623 19.8009C134.097 20.9771 135.143 22.5253 135.763 24.4456C134.952 24.743 134.013 25.1014 132.944 25.5206C131.876 25.9398 130.762 26.3791 129.601 26.8386C128.438 27.2989 127.275 27.7653 126.112 28.2376C124.95 28.71 123.881 29.136 122.907 29.5158C123.357 30.3451 124.014 31.044 124.814 31.5449C125.639 32.0634 126.597 32.3314 127.572 32.3165C128.299 32.3128 129.02 32.1822 129.703 31.9307C130.356 31.7135 130.956 31.3632 131.467 30.902L134.343 33.6962ZM130.936 23.5544C130.614 22.9608 130.098 22.4952 129.475 22.2351C128.876 21.9622 128.226 21.8172 127.568 21.8095C126.856 21.8056 126.152 21.9506 125.499 22.2351C124.876 22.5019 124.311 22.8881 123.836 23.3719C123.377 23.843 123.006 24.3926 122.741 24.9946C122.474 25.5878 122.336 26.2307 122.336 26.881V27.0431C123.011 26.773 123.734 26.482 124.505 26.1699C125.276 25.8579 126.047 25.5403 126.82 25.2171C127.591 24.8931 128.328 24.5887 129.03 24.3041C129.732 24.0195 130.367 23.7696 130.936 23.5544Z" fill="white"/>
</svg>
