<svg xmlns="http://www.w3.org/2000/svg" width="33" height="32" viewBox="0 0 33 32" fill="none">
<g id="fluent-emoji-flat:party-popper">
<g id="Group">
<path id="Vector" d="M5.5474 29.8998L7.0194 29.5058L7.4134 28.6508L9.9634 28.7178L12.6164 28.0078L13.2144 27.0818L15.6964 27.1838L18.2874 26.4898C20.0874 26.0098 20.6974 23.7498 19.3774 22.4298L10.0574 13.0998C8.7374 11.7798 6.4774 12.3798 5.9974 14.1898L5.2244 17.0768L5.3324 19.4208L4.4524 19.9628L3.6624 22.9138L3.7944 25.1618L2.9314 25.6458L2.5874 26.9298C2.0974 28.7298 3.7474 30.3798 5.5474 29.8998Z" fill="#F9C23C"/>
<path id="Vector_2" d="M8.29769 25.0528C6.81769 23.6698 5.55769 22.0058 4.44369 19.9948L5.22169 17.0908C6.49969 19.8888 7.93769 21.9798 9.66269 23.5908C11.3257 25.1438 13.2957 26.2878 15.7327 27.1738L12.6047 28.0108C11.0027 27.2138 9.57769 26.2468 8.29869 25.0528H8.29769ZM4.78469 27.8858C4.07722 27.2199 3.45422 26.4696 2.92969 25.6518L3.67469 22.8688C4.37769 24.3588 5.16469 25.5028 6.15069 26.4258C7.13469 27.3458 8.35869 28.0848 9.98869 28.7108L6.99969 29.5108C6.2009 29.0568 5.45758 28.5115 4.78469 27.8858Z" fill="#3F5FFF"/>
<path id="Vector_3" d="M19.6067 25.6899C21.0067 24.2899 19.2667 20.2899 15.7267 16.7499C12.1867 13.2099 8.19667 11.4699 6.79667 12.8699C5.39667 14.2699 7.13667 18.2699 10.6767 21.8099C14.2167 25.3499 18.2167 27.0799 19.6067 25.6899Z" fill="#6D4534"/>
<path id="Vector_4" d="M12.1037 7.26979C12.7152 8.40786 13.0938 9.65634 13.2174 10.9423C13.341 12.2283 13.2072 13.5261 12.8238 14.7598C12.1837 16.8768 10.8394 18.7115 9.01375 19.9598C8.49375 19.3098 8.04375 18.6598 7.66375 18.0298C9.05664 17.0799 10.0833 15.6828 10.5738 14.0698C11.1638 12.1598 10.9738 10.1398 10.0338 8.37979C9.72375 7.79979 9.94375 7.08979 10.5138 6.78979C11.0938 6.47979 11.8037 6.69979 12.1037 7.26979ZM22.6437 16.7128C23.5415 16.003 24.6074 15.537 25.7381 15.3601C26.8688 15.1831 28.0261 15.3012 29.0977 15.7028C29.2268 15.7509 29.364 15.773 29.5016 15.7681C29.6392 15.7631 29.7745 15.7311 29.8997 15.6738C30.0249 15.6166 30.1376 15.5352 30.2314 15.4344C30.3252 15.3336 30.3982 15.2153 30.4462 15.0863C30.4943 14.9573 30.5165 14.82 30.5115 14.6824C30.5066 14.5448 30.4745 14.4096 30.4173 14.2844C30.36 14.1591 30.2787 14.0464 30.1779 13.9526C30.0771 13.8589 29.9588 13.7859 29.8298 13.7378C28.4204 13.2105 26.8988 13.0558 25.4122 13.2888C23.9255 13.5218 22.5242 14.1346 21.3438 15.0678C21.2357 15.1532 21.1456 15.2589 21.0785 15.3791C21.0113 15.4993 20.9686 15.6316 20.9525 15.7683C20.9365 15.9051 20.9476 16.0436 20.9851 16.1761C21.0226 16.3085 21.0859 16.4323 21.1712 16.5403C21.2566 16.6483 21.3624 16.7384 21.4826 16.8056C21.6028 16.8727 21.735 16.9155 21.8718 16.9315C22.0085 16.9475 22.1471 16.9365 22.2795 16.8989C22.412 16.8614 22.5357 16.7982 22.6437 16.7128ZM6.50375 9.68979C6.8114 9.68979 7.10645 9.56758 7.32399 9.35004C7.54154 9.13249 7.66375 8.83744 7.66375 8.52979C7.66375 8.22214 7.54154 7.92709 7.32399 7.70955C7.10645 7.49201 6.8114 7.36979 6.50375 7.36979C6.1961 7.36979 5.90105 7.49201 5.68351 7.70955C5.46596 7.92709 5.34375 8.22214 5.34375 8.52979C5.34375 8.83744 5.46596 9.13249 5.68351 9.35004C5.90105 9.56758 6.1961 9.68979 6.50375 9.68979ZM26.6237 8.52979C26.6237 8.83744 26.5015 9.13249 26.284 9.35004C26.0665 9.56758 25.7714 9.68979 25.4637 9.68979C25.1561 9.68979 24.861 9.56758 24.6435 9.35004C24.426 9.13249 24.3037 8.83744 24.3037 8.52979C24.3037 8.22214 24.426 7.92709 24.6435 7.70955C24.861 7.49201 25.1561 7.36979 25.4637 7.36979C25.7714 7.36979 26.0665 7.49201 26.284 7.70955C26.5015 7.92709 26.6237 8.22214 26.6237 8.52979Z" fill="#F70A8D"/>
<path id="Vector_5" d="M12.9903 3.96C12.9903 4.21461 12.8892 4.45879 12.7091 4.63882C12.5291 4.81886 12.2849 4.92 12.0303 4.92C11.7757 4.92 11.5315 4.81886 11.3515 4.63882C11.1715 4.45879 11.0703 4.21461 11.0703 3.96C11.0703 3.70539 11.1715 3.46121 11.3515 3.28118C11.5315 3.10114 11.7757 3 12.0303 3C12.2849 3 12.5291 3.10114 12.7091 3.28118C12.8892 3.46121 12.9903 3.70539 12.9903 3.96ZM25.9803 24.41C25.9803 24.6673 25.8781 24.914 25.6962 25.0959C25.5143 25.2778 25.2676 25.38 25.0103 25.38C24.7531 25.38 24.5063 25.2778 24.3244 25.0959C24.1425 24.914 24.0403 24.6673 24.0403 24.41C24.0403 24.1527 24.1425 23.906 24.3244 23.7241C24.5063 23.5422 24.7531 23.44 25.0103 23.44C25.2676 23.44 25.5143 23.5422 25.6962 23.7241C25.8781 23.906 25.9803 24.1527 25.9803 24.41Z" fill="#F9C23C"/>
<path id="Vector_6" d="M22.1281 4.0202C21.9678 3.87645 21.7632 3.79178 21.5481 3.7802C21.2887 3.76645 21.0343 3.8552 20.8398 4.0273C20.6452 4.19941 20.5261 4.44107 20.5081 4.7002C20.4381 5.8002 19.6781 7.7902 19.3881 8.4602C19.3881 8.4652 19.3851 8.4702 19.3831 8.4752C19.3282 8.61196 19.2692 8.74702 19.2061 8.8802C18.8548 8.44552 18.3821 8.12526 17.8481 7.9602L17.8181 7.9502C16.4681 7.5002 14.9981 8.2302 14.5481 9.5902C14.3281 10.2502 14.3781 10.9502 14.6881 11.5702C14.9981 12.1902 15.5281 12.6502 16.1881 12.8702C16.2581 12.8942 16.3311 12.9092 16.4021 12.9152C16.9081 13.0522 17.3971 13.0572 17.8671 12.9302C17.8386 13.0679 17.8056 13.2047 17.7681 13.3402C17.6281 13.8602 17.9381 14.4002 18.4581 14.5402C18.7087 14.6072 18.9757 14.5722 19.2006 14.4429C19.4255 14.3136 19.59 14.1005 19.6581 13.8502C19.8824 13.0428 19.9813 12.2057 19.9511 11.3682C20.4711 10.7162 20.8871 9.9982 21.1981 9.2202L21.2131 9.1842C21.3981 8.7362 22.3711 6.3822 22.4681 4.8102C22.4781 4.5002 22.3481 4.2102 22.1281 4.0202ZM17.2481 9.8102C17.5231 9.9022 17.8061 10.0562 17.9261 10.6862C17.4341 11.1432 17.1181 11.0932 16.8381 11.0002C16.8046 10.9891 16.7706 10.9797 16.7361 10.9722C16.6091 10.9113 16.5073 10.808 16.4481 10.6802C16.4088 10.6071 16.3858 10.5263 16.3806 10.4435C16.3755 10.3606 16.3882 10.2776 16.4181 10.2002C16.5281 9.8702 16.8881 9.6902 17.2181 9.8002L17.2481 9.8102ZM18.7681 18.1602C22.1781 17.2102 25.7481 17.6402 28.8281 19.3802C29.3981 19.7102 29.5981 20.4202 29.2881 20.9802C28.9681 21.5502 28.2481 21.7502 27.6781 21.4302C26.4335 20.727 25.0621 20.2766 23.6429 20.105C22.2237 19.9334 20.7845 20.0439 19.4081 20.4302C17.0981 21.0702 15.1181 22.4302 13.6881 24.3102C13.0781 23.8902 12.4481 23.4102 11.8281 22.8702C13.5581 20.6002 15.9681 18.9402 18.7681 18.1602ZM17.1221 16.9852C17.1221 17.2902 17.001 17.5827 16.7853 17.7984C16.5696 18.014 16.2771 18.1352 15.9721 18.1352C15.6671 18.1352 15.3746 18.014 15.159 17.7984C14.9433 17.5827 14.8221 17.2902 14.8221 16.9852C14.8221 16.6802 14.9433 16.3877 15.159 16.172C15.3746 15.9564 15.6671 15.8352 15.9721 15.8352C16.2771 15.8352 16.5696 15.9564 16.7853 16.172C17.001 16.3877 17.1221 16.6802 17.1221 16.9852Z" fill="#00A6ED"/>
</g>
</g>
</svg>