<svg id="Capa_2" xmlns="http://www.w3.org/2000/svg" viewBox="0 0 978.21 144.77">
  <defs>
    <style>
      .cls-1 {
        fill: #712382;
      }

      .cls-2 {
        fill: #fff;
      }

      .cls-3 {
        fill: #1f4494;
      }

      .cls-4 {
        fill: #ef7a15;
      }

      .cls-5 {
        fill: #ef7a14;
      }
    </style>
  </defs>
  <g id="Capa_1-2" data-name="Capa_1">
    <g>
      <polygon class="cls-5" points="63.38 71.58 21.13 71.58 0 108.17 21.13 144.77 63.38 144.77 84.51 108.17 63.38 71.58"/>
      <polygon class="cls-3" points="105.64 0 63.38 0 42.26 36.59 105.64 144.77 147.89 144.77 169.02 108.17 105.64 0"/>
      <polygon class="cls-1" points="190.15 0 147.89 0 126.77 36.59 190.15 144.77 232.41 144.77 253.53 108.17 190.15 0"/>
    </g>
    <g>
      <g>
        <path class="cls-2" d="M506.72,41.51c-2.19-.16-3.99-.3-6.2-.46v-21.88c.98-.12,1.93-.33,2.87-.33,20.29,0,40.59-.28,60.87.25,6.83.18,13.87,1.68,20.33,3.95,9.5,3.35,14.22,10.93,14.83,21.05.67,10.96-3.97,18.95-13.43,24.19-2.72,1.5-5.73,2.47-10.07,4.3,3.27.78,5.34,1.24,7.39,1.76,11.95,3.06,18.11,9.88,18.84,20.83.87,13.02-4.26,22.31-15.89,26.37-6.64,2.32-13.86,3.93-20.86,4.11-20.61.54-41.25.22-61.87.21-.96,0-1.92-.2-3.12-.33v-22.03c2.2-.21,4.13-.4,6.31-.61v-61.38ZM545.44,103.3c5.49-.88,11.26,2.09,15.13-3.41,2.33-3.32,1.91-15.28-.68-17.77-4.25-4.09-9.42-2.39-14.45-2.2v23.38ZM545.46,63.84c5.23-.08,11.62,2.23,13.69-3.27,1.79-4.78,1.76-11.44-.22-16.1-2.17-5.12-8.49-3.14-13.47-2.91v22.28Z"/>
        <path class="cls-2" d="M442.79,17.22c11-.37,21.53,1.45,31.17,7.09,10.42,6.1,16.36,15.43,19.02,26.91,3.24,13.98,3.35,28.07.02,42.04-4.45,18.64-16.52,29.35-35.19,32.97-12.31,2.38-24.51,2.16-36.51-1.62-15.64-4.92-25.22-15.54-28.84-31.48-3.21-14.17-3.14-28.41.12-42.55,4.43-19.25,20.94-32.18,42.22-33.36,2.65-.15,5.32-.02,7.99-.02ZM433.35,72.37c0,6.82-.05,13.65.01,20.47.07,7.26,2.78,10.27,9.12,10.34,6.45.07,9.59-2.89,9.67-9.91.17-13.98.17-27.96,0-41.94-.08-6.79-3.61-10.19-9.72-10.04-5.91.14-9,3.48-9.09,10.12-.1,6.99-.02,13.98-.01,20.97Z"/>
        <path class="cls-2" d="M606.96,125.56v-22.08c2.05-.16,3.84-.31,6.07-.48v-61.41c-1.83-.19-3.74-.39-6.04-.63v-21.89h92.01v40.89h-30.24v-18.38h-16.38v21.44h11.45v15.67h-11.38v24.11h16.15v-20.95h30.52v43.71h-92.15Z"/>
        <path class="cls-2" d="M385.76,61.12h-33.06c0-3.6.13-7.03-.03-10.44-.29-6.35-3.35-9.39-9.24-9.4-5.88-.02-9.23,3.03-9.31,9.31-.17,14.48-.15,28.97.04,43.45.08,6.38,3.21,9.17,9.3,9.15,6.07-.02,8.88-2.85,9.08-9.31.11-3.64.02-7.28.02-11.36h33.16c0,11.18.09,22.28-.13,33.37-.02,1.2-1.66,2.89-2.95,3.47-21.86,9.88-44.2,11.99-66.69,2.57-11.38-4.77-18.6-13.94-21.95-25.72-4.27-15-4.42-30.23-.52-45.37,4.55-17.67,16.11-28.48,33.79-32.08,18.52-3.77,36.69-2.1,54.1,5.79,3.07,1.39,4.59,3.09,4.49,6.74-.26,9.78-.09,19.56-.09,29.86Z"/>
        <path class="cls-2" d="M816.57,102.93c2.14.17,3.93.31,6.14.49v22.11h-51.46v-22.04c2.16-.19,4.09-.35,6.45-.56.13-7.16.9-13.85-3.45-20.57-7.49-11.57-13.97-23.8-20.76-35.82-1.84-3.26-3.52-6.41-8.28-5.35v-22.01h52.58v21.68c-1.19.23-2.42.48-4.27.84,2.68,7.02,5.3,13.88,7.92,20.74l1.46.09c2.62-6.85,5.24-13.69,7.99-20.87-1.8-.31-3.17-.55-4.66-.81v-21.63h41.86v21.91c-4.78-.96-6.44,2.19-8.26,5.49-6.72,12.24-13.34,24.56-20.51,36.54-3.85,6.42-3.15,12.92-2.75,19.77Z"/>
      </g>
      <polygon class="cls-4" points="978.21 53.66 947.58 53.66 947.58 23.02 910.13 23.02 910.13 53.66 879.49 53.66 879.49 91.11 910.13 91.11 910.13 121.75 947.58 121.75 947.58 91.11 978.21 91.11 978.21 53.66"/>
    </g>
  </g>
</svg>